<svg width="300" height="96" viewBox="0 0 300 96" fill="none" xmlns="http://www.w3.org/2000/svg">
<path d="M155.925 32.3813H165.11V70.6734C165.11 73.5764 165.11 75.097 165.801 77.3088H157.721C156.271 76.272 155.925 73.5072 155.925 72.2631C154.82 74.7514 152.403 78 147.707 78C141.354 78 139.835 73.5072 139.835 63.7614V32.3813H149.019V64.5217C149.019 68.1851 150.055 69.4983 152.334 69.4983C154.751 69.4983 155.925 67.9777 155.925 64.4526V32.3813Z" fill="#141832"/>
<path d="M118 16.003H141.894V25.1959H134.574V77.3088H125.32V25.1959H118V16.003Z" fill="#141832"/>
<path d="M248.993 32.3813H258.177V70.6734C258.177 73.5764 258.177 75.097 258.868 77.3088H250.788C249.338 76.272 248.993 73.5072 248.993 72.2631C247.888 74.7514 245.471 78 240.775 78C234.421 78 232.902 73.5072 232.902 63.7614V32.3813H242.087V64.5217C242.087 68.1851 243.123 69.4983 245.401 69.4983C247.819 69.4983 248.993 67.9777 248.993 64.4526V32.3813Z" fill="#141832"/>
<path d="M284.324 37.8417C285.567 34.5931 288.536 31.6901 292.68 31.6901C298.688 31.6901 300 36.1828 300 45.9286V77.3088H290.815V45.1683C290.815 41.505 289.917 40.1917 287.984 40.1917C285.981 40.1917 284.876 41.7124 284.876 45.2375V77.3088H275.622V45.1683C275.622 41.505 274.724 40.1917 272.86 40.1917C270.857 40.1917 269.683 41.7124 269.683 45.2375V77.3088H260.498V32.3813H269.683V37.427C270.788 34.8004 273.205 31.6901 277.487 31.6901C281.492 31.6901 283.426 33.6945 284.324 37.8417Z" fill="#141832"/>
<path d="M230.728 77.3058H221.543V16H230.728V77.3058Z" fill="#141832"/>
<path d="M176.084 32.3783L179.745 66.5923L183.336 32.3783H192.52L185.96 77.3058H173.46L166.9 32.3783H176.084Z" fill="#141832"/>
<path fill-rule="evenodd" clip-rule="evenodd" d="M219.024 45.7213C219.024 36.6667 215.571 31.6901 206.593 31.6901C197.478 31.6901 193.887 36.6667 193.887 45.9286V47.2419H203.071V45.7213C203.071 41.8506 204.107 40.1917 206.593 40.1917C208.803 40.1917 209.839 41.2285 209.839 44.2698C209.811 47.4877 206.957 49.1334 203.611 51.0632C198.836 53.8173 193.058 57.15 193.058 66.4571C193.058 74.4058 197.063 78 201.897 78C205.903 78 208.182 76.2029 209.839 72.2631C209.839 73.5072 210.185 76.1338 211.635 77.3088H219.715C219.024 74.9587 219.024 73.4381 219.024 70.6734V45.7213ZM205.834 69.4953C207.975 69.4953 209.218 67.6291 209.839 66.6614V54.6347C209.092 55.8557 207.897 56.8341 206.673 57.8356C204.502 59.612 202.243 61.4609 202.243 64.8643C202.243 67.8365 203.555 69.4953 205.834 69.4953Z" fill="#141832"/>
<path d="M60.6954 36.7755L87.7617 27.9682C89.083 30.8973 90.0904 33.9993 90.741 37.2281L63.5911 46.0641L90.6863 54.8829C90.0127 58.1088 88.9851 61.2022 87.6466 64.1225L51.5504 52.3748C49.1613 51.5964 46.585 51.5964 44.1959 52.3748L8.3271 64.0476C6.99148 61.1243 5.96962 58.0281 5.30469 54.8022L32.1552 46.0641L5.25 37.3088C5.89478 34.0771 6.89649 30.9751 8.21196 28.0432L35.2755 36.8504L18.5169 13.7498C20.9003 11.5588 23.5284 9.62731 26.355 8.00424L43.1337 31.1337V2.52099C44.7313 2.34225 46.3576 2.25 48.0041 2.25C49.6391 2.25 51.2539 2.34225 52.8457 2.51811V31.0501L69.5899 7.96677C72.4194 9.58407 75.0504 11.5098 77.4366 13.6979L60.6954 36.7755Z" fill="#08E394"/>
<path fill-rule="evenodd" clip-rule="evenodd" d="M47.9667 58.2962C38.2058 58.2962 30.2669 66.2472 30.2669 76.0231C30.2669 85.799 38.2058 93.75 47.9667 93.75C57.7276 93.75 65.6665 85.799 65.6665 76.0231C65.6665 66.2501 57.7248 58.2962 47.9667 58.2962ZM38.9024 76.026C38.9024 81.0307 42.9668 85.1042 47.9667 85.1042C52.9638 85.1042 57.0311 81.0307 57.0311 76.026C57.0311 71.0213 52.9666 66.9478 47.9667 66.9478C42.9697 66.9478 38.9024 71.0184 38.9024 76.026Z" fill="#08E394"/>
</svg>
